<svg width="15" height="15" viewBox="0 0 15 15" fill="none" xmlns="http://www.w3.org/2000/svg">
<path d="M1.7071 0.292895C1.31658 -0.0976291 0.683415 -0.0976291 0.292891 0.292895C-0.0976331 0.68342 -0.097633 1.31658 0.292891 1.70711L1.7071 0.292895ZM13.8943 14.8943C14.4466 14.8943 14.8943 14.4466 14.8943 13.8943L14.8943 4.89429C14.8943 4.342 14.4466 3.89429 13.8943 3.89429C13.342 3.89429 12.8943 4.342 12.8943 4.89429L12.8943 12.8943L4.89429 12.8943C4.342 12.8943 3.89429 13.342 3.89429 13.8943C3.89429 14.4466 4.342 14.8943 4.89429 14.8943L13.8943 14.8943ZM0.292891 1.70711L13.1872 14.6014L14.6014 13.1872L1.7071 0.292895L0.292891 1.70711Z" fill="black"/>
</svg>
