<svg width="34" height="37" viewBox="0 0 34 37" fill="none" xmlns="http://www.w3.org/2000/svg">
<path d="M16 28.8943C16 29.4466 16.4477 29.8943 17 29.8943C17.5523 29.8943 18 29.4466 18 28.8943L16 28.8943ZM17.7071 7.29289C17.3166 6.90237 16.6834 6.90237 16.2929 7.29289L9.92893 13.6569C9.53841 14.0474 9.53841 14.6805 9.92893 15.0711C10.3195 15.4616 10.9526 15.4616 11.3431 15.0711L17 9.41421L22.6569 15.0711C23.0474 15.4616 23.6805 15.4616 24.0711 15.0711C24.4616 14.6805 24.4616 14.0474 24.0711 13.6569L17.7071 7.29289ZM18 28.8943L18 8L16 8L16 28.8943L18 28.8943Z" fill="#1400FF"/>
</svg>
