<svg width="15" height="16" viewBox="0 0 15 16" fill="none" xmlns="http://www.w3.org/2000/svg">
<path d="M0.398364 13.3072C0.00783959 13.6977 0.00783973 14.3309 0.398364 14.7214C0.788888 15.1119 1.42205 15.1119 1.81258 14.7214L0.398364 13.3072ZM14.9998 1.11999C14.9998 0.567709 14.552 0.119994 13.9998 0.119994L4.99975 0.119997C4.44747 0.119997 3.99975 0.567712 3.99975 1.12C3.99975 1.67228 4.44747 2.12 4.99975 2.12L12.9998 2.11999L12.9998 10.12C12.9998 10.6723 13.4475 11.12 13.9998 11.12C14.552 11.12 14.9998 10.6723 14.9998 10.12L14.9998 1.11999ZM1.81258 14.7214L14.7069 1.8271L13.2926 0.412888L0.398364 13.3072L1.81258 14.7214Z" fill="black"/>
</svg>
