<svg width="21" height="16" viewBox="0 0 21 16" fill="none" xmlns="http://www.w3.org/2000/svg">
<path d="M1 6.89429C0.447715 6.89429 -1.19209e-07 7.34201 0 7.89429C5.96046e-08 8.44657 0.447715 8.89429 1 8.89429L1 6.89429ZM19.9424 8.60139C20.3329 8.21087 20.3329 7.5777 19.9424 7.18718L13.5784 0.82322C13.1879 0.432696 12.5547 0.432696 12.1642 0.82322C11.7737 1.21374 11.7737 1.84691 12.1642 2.23743L17.8211 7.89429L12.1642 13.5511C11.7737 13.9417 11.7737 14.5748 12.1642 14.9654C12.5547 15.3559 13.1879 15.3559 13.5784 14.9654L19.9424 8.60139ZM1 8.89429L19.2353 8.89429V6.89429L1 6.89429L1 8.89429Z" fill="black"/>
</svg>
