<svg id="Layer_1" data-name="Layer 1" xmlns="http://www.w3.org/2000/svg" viewBox="0 0 300 56.27"><defs><style>.cls-1{fill:#1d1d1b;}</style></defs><polygon class="cls-1" points="22.12 21.15 22.12 34.78 25.09 34.78 25.09 30.99 26.87 28.84 30.48 34.78 33.98 34.78 28.98 26.75 33.56 21.15 30.21 21.15 27.14 25 25.21 27.63 25.09 27.63 25.09 21.15 22.12 21.15"/><polygon class="cls-1" points="47.27 30.33 45.97 27.59 42.24 21.15 38.99 21.15 38.99 34.78 41.79 34.78 41.79 25.6 41.85 25.6 43.15 28.33 46.88 34.78 50.13 34.78 50.13 21.15 47.33 21.15 47.33 30.33 47.27 30.33"/><path class="cls-1" d="M64.34,21.36a6.95,6.95,0,0,0-4.92,0,5,5,0,0,0-1.89,1.34,6.11,6.11,0,0,0-1.21,2.21A9.72,9.72,0,0,0,55.89,28,9.79,9.79,0,0,0,56.32,31a6.19,6.19,0,0,0,1.21,2.21,5,5,0,0,0,1.89,1.33,6.95,6.95,0,0,0,4.92,0,4.92,4.92,0,0,0,1.9-1.33A6.35,6.35,0,0,0,67.45,31,10.09,10.09,0,0,0,67.88,28a10,10,0,0,0-.43-3.05,6.26,6.26,0,0,0-1.21-2.21A4.94,4.94,0,0,0,64.34,21.36ZM64.73,29A3.79,3.79,0,0,1,64,31.5a2.95,2.95,0,0,1-4.2,0A3.79,3.79,0,0,1,59,29V27a3.75,3.75,0,0,1,.75-2.52,2.95,2.95,0,0,1,4.2,0A3.75,3.75,0,0,1,64.73,27Z"/><polygon class="cls-1" points="85.28 31.48 85.22 31.48 84.38 27.69 82.86 21.15 79.61 21.15 78.11 27.69 77.25 31.48 77.19 31.48 76.47 27.69 75.18 21.15 72.25 21.15 75.34 34.78 78.74 34.78 80.45 27.4 81.14 24.41 81.2 24.41 81.86 27.4 83.58 34.78 86.96 34.78 90.12 21.15 87.31 21.15 86 27.69 85.28 31.48"/><polygon class="cls-1" points="101.43 23.51 101.43 21.15 94.94 21.15 94.94 23.51 96.7 23.51 96.7 32.42 94.94 32.42 94.94 34.78 101.43 34.78 101.43 32.42 99.67 32.42 99.67 23.51 101.43 23.51"/><polygon class="cls-1" points="115.53 30.33 115.47 30.33 114.16 27.59 110.43 21.15 107.19 21.15 107.19 34.78 109.98 34.78 109.98 25.6 110.04 25.6 111.35 28.33 115.08 34.78 118.32 34.78 118.32 21.15 115.53 21.15 115.53 30.33"/><path class="cls-1" d="M130.39,29.66h2.54v.69a1.72,1.72,0,0,1-.21.87,1.82,1.82,0,0,1-.57.64,2.7,2.7,0,0,1-.86.39,4.36,4.36,0,0,1-1,.13,3,3,0,0,1-2.2-.81,3.39,3.39,0,0,1-.82-2.51V26.87a3.37,3.37,0,0,1,.82-2.52,3,3,0,0,1,2.2-.8,2.76,2.76,0,0,1,1.86.56,3.36,3.36,0,0,1,1,1.35l2.42-1.38a5.44,5.44,0,0,0-2.09-2.38,6.16,6.16,0,0,0-3.17-.79,6.61,6.61,0,0,0-2.52.47,5.32,5.32,0,0,0-1.94,1.37A6.32,6.32,0,0,0,124.53,25a9.55,9.55,0,0,0-.45,3.05,9.89,9.89,0,0,0,.43,3,6.55,6.55,0,0,0,1.19,2.19,5.08,5.08,0,0,0,1.78,1.32,5.36,5.36,0,0,0,2.19.45,3.91,3.91,0,0,0,2.44-.68,2.58,2.58,0,0,0,1-1.72h.1v2.17h2.5v-7.6h-5.37Z"/><polygon class="cls-1" points="163.31 28.1 163.27 28.1 159.93 21.72 156.78 21.72 156.78 35.35 159.58 35.35 159.58 26.27 159.63 26.27 160.67 28.42 163.27 33.22 165.92 28.4 166.92 26.41 166.98 26.41 166.98 35.35 169.77 35.35 169.77 21.72 166.61 21.72 163.31 28.1"/><path class="cls-1" d="M179.48,21.72,175,35.35h3l1-3.24h4.55l1,3.24h3.08l-4.43-13.63Zm.19,7.87,1.51-5.18h.09l1.53,5.18Z"/><path class="cls-1" d="M199.46,32.35a2.45,2.45,0,0,1-1.74.6,2.73,2.73,0,0,1-2.1-.85,3.49,3.49,0,0,1-.79-2.47V27.44a3.49,3.49,0,0,1,.79-2.47,2.7,2.7,0,0,1,2.1-.85,2.44,2.44,0,0,1,1.69.52,3.09,3.09,0,0,1,.85,1.38l2.55-1.33a5.24,5.24,0,0,0-2-2.43,5.73,5.73,0,0,0-3.12-.78,6.4,6.4,0,0,0-2.5.47,5.12,5.12,0,0,0-1.9,1.38,6.45,6.45,0,0,0-1.21,2.25,10.16,10.16,0,0,0-.43,3.05,9.91,9.91,0,0,0,.43,3,6.16,6.16,0,0,0,1.21,2.17,4.93,4.93,0,0,0,1.9,1.3,6.59,6.59,0,0,0,2.5.44,5.4,5.4,0,0,0,3.13-.85,5.93,5.93,0,0,0,2-2.41l-2.42-1.4A3.54,3.54,0,0,1,199.46,32.35Z"/><polygon class="cls-1" points="216.41 27.13 211.21 27.13 211.21 21.72 208.24 21.72 208.24 35.35 211.21 35.35 211.21 29.76 216.41 29.76 216.41 35.35 219.38 35.35 219.38 21.72 216.41 21.72 216.41 27.13"/><polygon class="cls-1" points="225.18 24.08 226.93 24.08 226.93 32.99 225.18 32.99 225.18 35.35 231.66 35.35 231.66 32.99 229.9 32.99 229.9 24.08 231.66 24.08 231.66 21.72 225.18 21.72 225.18 24.08"/><polygon class="cls-1" points="245.8 30.9 245.74 30.9 244.43 28.16 240.7 21.72 237.46 21.72 237.46 35.35 240.25 35.35 240.25 26.17 240.31 26.17 241.62 28.91 245.35 35.35 248.59 35.35 248.59 21.72 245.8 21.72 245.8 30.9"/><polygon class="cls-1" points="254.92 35.35 264.19 35.35 264.19 32.71 257.89 32.71 257.89 29.76 263.3 29.76 263.3 27.13 257.89 27.13 257.89 24.36 264.19 24.36 264.19 21.72 254.92 21.72 254.92 35.35"/><path class="cls-1" d="M274.7,33a4.44,4.44,0,0,1-3.42-1.55l-1.95,2a6.94,6.94,0,0,0,2.13,1.6,6.84,6.84,0,0,0,3,.61,7.2,7.2,0,0,0,2.27-.32,4.71,4.71,0,0,0,1.67-.91,3.9,3.9,0,0,0,1-1.41,4.54,4.54,0,0,0,.35-1.79,3.61,3.61,0,0,0-1-2.75,5.71,5.71,0,0,0-3.12-1.3l-1.35-.22a2.61,2.61,0,0,1-1.24-.44,1.24,1.24,0,0,1-.38-1,1.1,1.1,0,0,1,.49-1,2.56,2.56,0,0,1,1.48-.35,3.78,3.78,0,0,1,1.75.36,4,4,0,0,1,1.18.92l2-2a5.52,5.52,0,0,0-2-1.43,7.71,7.71,0,0,0-4.87-.18,4.52,4.52,0,0,0-1.6.85,3.7,3.7,0,0,0-1,1.31,4,4,0,0,0-.35,1.68,3.8,3.8,0,0,0,1,2.76,5.24,5.24,0,0,0,3.17,1.31l1.35.17a2,2,0,0,1,1.27.51,1.5,1.5,0,0,1,.31.94,1.46,1.46,0,0,1-.53,1.18A2.45,2.45,0,0,1,274.7,33Z"/><polygon class="cls-1" points="300 3.06 134.81 3.06 134.81 0 0 0 0 56.5 102.3 56.5 102.3 52.41 4.07 52.41 4.07 4.07 299 4.07 299 52.41 266.98 52.41 266.98 52.88 266.98 53.42 266.98 56.5 299.99 56.5 299.99 53.42 300 53.42 300 3.06"/></svg>