<svg id="Layer_1" data-name="Layer 1" xmlns="http://www.w3.org/2000/svg" viewBox="0 0 185.47 36"><defs><style>.cls-1{fill:#fff;}</style></defs><rect class="cls-1" y="3.31" width="185.47" height="35.33"/><polygon points="13.61 14.56 13.61 22.97 15.44 22.97 15.44 20.63 16.53 19.31 18.76 22.97 20.92 22.97 17.83 18.02 20.66 14.56 18.59 14.56 16.7 16.93 15.51 18.56 15.44 18.56 15.44 14.56 13.61 14.56"/><polygon points="29.11 20.22 28.31 18.54 26.01 14.56 24.01 14.56 24.01 22.97 25.73 22.97 25.73 17.31 25.77 17.31 26.57 18.99 28.87 22.97 30.87 22.97 30.87 14.56 29.15 14.56 29.15 20.22 29.11 20.22"/><path d="M39.64,14.69a4.41,4.41,0,0,0-3,0,3.13,3.13,0,0,0-1.17.83,3.7,3.7,0,0,0-.74,1.36,6,6,0,0,0-.27,1.88,6,6,0,0,0,.27,1.89A3.79,3.79,0,0,0,35.43,22a3.11,3.11,0,0,0,1.17.82,4.27,4.27,0,0,0,3,0A3.07,3.07,0,0,0,40.8,22a4,4,0,0,0,.75-1.36,6,6,0,0,0,.26-1.89,6,6,0,0,0-.26-1.88,3.87,3.87,0,0,0-.75-1.36A3.1,3.1,0,0,0,39.64,14.69Zm.24,4.7a2.31,2.31,0,0,1-.47,1.55,1.81,1.81,0,0,1-2.58,0,2.31,2.31,0,0,1-.47-1.55V18.14a2.3,2.3,0,0,1,.47-1.55,1.79,1.79,0,0,1,2.58,0,2.3,2.3,0,0,1,.47,1.55Z"/><polygon points="52.54 20.93 52.51 20.93 51.99 18.59 51.05 14.56 49.05 14.56 48.12 18.59 47.59 20.93 47.56 20.93 47.11 18.59 46.32 14.56 44.51 14.56 46.41 22.97 48.51 22.97 49.57 18.41 49.99 16.57 50.03 16.57 50.44 18.41 51.49 22.97 53.58 22.97 55.53 14.56 53.79 14.56 52.99 18.59 52.54 20.93"/><polygon points="62.5 16.02 62.5 14.56 58.5 14.56 58.5 16.02 59.58 16.02 59.58 21.51 58.5 21.51 58.5 22.97 62.5 22.97 62.5 21.51 61.41 21.51 61.41 16.02 62.5 16.02"/><polygon points="71.19 20.22 71.15 20.22 70.35 18.54 68.05 14.56 66.05 14.56 66.05 22.97 67.77 22.97 67.77 17.31 67.81 17.31 68.61 18.99 70.91 22.97 72.91 22.97 72.91 14.56 71.19 14.56 71.19 20.22"/><path d="M80.35,19.81h1.57v.42a1.13,1.13,0,0,1-.13.54,1.06,1.06,0,0,1-.36.4,1.85,1.85,0,0,1-.53.24,2.59,2.59,0,0,1-.63.07A1.85,1.85,0,0,1,78.91,21a2.1,2.1,0,0,1-.51-1.55V18.09a2.07,2.07,0,0,1,.51-1.55,1.85,1.85,0,0,1,1.36-.5,1.71,1.71,0,0,1,1.14.35,2,2,0,0,1,.6.83l1.5-.85a3.37,3.37,0,0,0-1.29-1.46,3.72,3.72,0,0,0-2-.49,3.94,3.94,0,0,0-1.56.29,3.23,3.23,0,0,0-1.19.84,3.75,3.75,0,0,0-.78,1.37,5.72,5.72,0,0,0-.28,1.88,5.9,5.9,0,0,0,.27,1.87A3.83,3.83,0,0,0,77.46,22a2.92,2.92,0,0,0,1.1.82,3.17,3.17,0,0,0,1.35.28,2.43,2.43,0,0,0,1.5-.42,1.59,1.59,0,0,0,.65-1.06h.06V23h1.54V18.28H80.35Z"/><polygon points="100.64 18.85 100.62 18.85 98.56 14.91 96.62 14.91 96.62 23.32 98.34 23.32 98.34 17.72 98.38 17.72 99.02 19.04 100.62 22 102.25 19.03 102.87 17.8 102.91 17.8 102.91 23.32 104.63 23.32 104.63 14.91 102.68 14.91 100.64 18.85"/><path d="M110.61,14.91l-2.77,8.41h1.85l.61-2h2.8l.6,2h1.91l-2.74-8.41Zm.12,4.86.93-3.19h.06l.94,3.19Z"/><path d="M122.93,21.47a1.57,1.57,0,0,1-1.08.37,1.68,1.68,0,0,1-1.29-.53,2.12,2.12,0,0,1-.49-1.52V18.44a2.14,2.14,0,0,1,.49-1.52,1.67,1.67,0,0,1,1.29-.52,1.55,1.55,0,0,1,1.05.31,2,2,0,0,1,.52.85l1.58-.82a3.24,3.24,0,0,0-1.22-1.49,3.56,3.56,0,0,0-1.93-.48,4,4,0,0,0-1.54.29,3,3,0,0,0-1.16.85,3.81,3.81,0,0,0-.75,1.38,6.07,6.07,0,0,0-.27,1.89,5.9,5.9,0,0,0,.27,1.87,3.58,3.58,0,0,0,.75,1.33,3,3,0,0,0,1.16.81,4.18,4.18,0,0,0,1.54.27,3.36,3.36,0,0,0,1.94-.52A3.73,3.73,0,0,0,125,21.45l-1.49-.87A2.2,2.2,0,0,1,122.93,21.47Z"/><polygon points="133.38 18.25 130.17 18.25 130.17 14.91 128.34 14.91 128.34 23.32 130.17 23.32 130.17 19.88 133.38 19.88 133.38 23.32 135.21 23.32 135.21 14.91 133.38 14.91 133.38 18.25"/><polygon points="138.78 16.37 139.86 16.37 139.86 21.86 138.78 21.86 138.78 23.32 142.78 23.32 142.78 21.86 141.69 21.86 141.69 16.37 142.78 16.37 142.78 14.91 138.78 14.91 138.78 16.37"/><polygon points="151.49 20.57 151.46 20.57 150.65 18.89 148.35 14.91 146.35 14.91 146.35 23.32 148.07 23.32 148.07 17.66 148.11 17.66 148.92 19.34 151.22 23.32 153.22 23.32 153.22 14.91 151.49 14.91 151.49 20.57"/><polygon points="157.12 23.32 162.83 23.32 162.83 21.69 158.94 21.69 158.94 19.88 162.28 19.88 162.28 18.25 158.94 18.25 158.94 16.54 162.83 16.54 162.83 14.91 157.12 14.91 157.12 23.32"/><path d="M169.31,21.84a2.72,2.72,0,0,1-2.11-1L166,22.1a4.29,4.29,0,0,0,1.31,1,4.15,4.15,0,0,0,1.88.38,4.34,4.34,0,0,0,1.4-.2,2.91,2.91,0,0,0,1-.56,2.55,2.55,0,0,0,.63-.86,2.89,2.89,0,0,0,.21-1.11,2.24,2.24,0,0,0-.62-1.7,3.64,3.64,0,0,0-1.93-.8l-.83-.13a1.74,1.74,0,0,1-.76-.27.76.76,0,0,1-.24-.62.69.69,0,0,1,.3-.6,1.62,1.62,0,0,1,.92-.21,2.21,2.21,0,0,1,1.8.78L172.32,16a3.51,3.51,0,0,0-1.24-.88,4.33,4.33,0,0,0-1.67-.3,4.19,4.19,0,0,0-1.33.19,2.91,2.91,0,0,0-1,.52,2.31,2.31,0,0,0-.62.81,2.61,2.61,0,0,0,.4,2.74,3.26,3.26,0,0,0,2,.8l.83.11a1.24,1.24,0,0,1,.78.32.84.84,0,0,1,.19.57.88.88,0,0,1-.32.73A1.49,1.49,0,0,1,169.31,21.84Z"/><polygon points="185.47 33 185.47 2.31 83.44 2.31 83.44 0.26 0 0.26 0 36 63.87 36 63.87 32.98 63.23 32.98 63.23 32.98 3.04 32.98 3.04 3.31 184.47 3.31 184.47 32.98 164.92 32.98 164.92 33 164.91 33 164.91 36 185.47 36 185.47 33 185.47 33"/></svg>