<svg id="Layer_1" data-name="Layer 1" xmlns="http://www.w3.org/2000/svg" viewBox="0 0 158.04 30.32"><defs><style>.cls-1{fill:#fff;}.cls-2{fill:#010101;}</style></defs><rect class="cls-1" x="-265.56" y="-38.99" width="669.25" height="133.85"/><path class="cls-2" d="M13.63,15.49l-.94,1.13v2H11.13V11.43h1.56v3.42h.06l1-1.39,1.62-2h1.77l-2.42,3,2.63,4.23H15.53Z"/><path class="cls-2" d="M22.21,15.22l-.69-1.44h0v4.84H20V11.43h1.71l2,3.4.69,1.44h0V11.43h1.48v7.19H24.18Z"/><path class="cls-2" d="M32.08,18.74a3.66,3.66,0,0,1-1.3-.23,2.61,2.61,0,0,1-1-.71,3.17,3.17,0,0,1-.64-1.16,5.75,5.75,0,0,1,0-3.22,3.22,3.22,0,0,1,.64-1.17,2.59,2.59,0,0,1,1-.7,3.46,3.46,0,0,1,1.3-.24,3.42,3.42,0,0,1,1.3.24,2.71,2.71,0,0,1,1,.7A3.36,3.36,0,0,1,35,13.42,4.93,4.93,0,0,1,35.24,15,5,5,0,0,1,35,16.64a3.31,3.31,0,0,1-.63,1.16,2.73,2.73,0,0,1-1,.71A3.62,3.62,0,0,1,32.08,18.74Zm0-1.39a1.39,1.39,0,0,0,1.11-.46,2,2,0,0,0,.39-1.33V14.49a2,2,0,0,0-.39-1.33,1.57,1.57,0,0,0-2.22,0,2,2,0,0,0-.39,1.33v1.07A2,2,0,0,0,31,16.89,1.39,1.39,0,0,0,32.08,17.35Z"/><path class="cls-2" d="M39.17,18.62l-1.62-7.19h1.54l.68,3.45.38,2h0l.45-2,.8-3.45h1.7l.81,3.45.44,2h0l.38-2,.69-3.45H47L45.3,18.62H43.52l-.91-3.89-.35-1.58h0l-.36,1.58L41,18.62Z"/><path class="cls-2" d="M49.51,18.62V17.37h.92V12.68h-.92V11.43h3.41v1.25H52v4.69h.92v1.25Z"/><path class="cls-2" d="M58.15,15.22l-.69-1.44h0v4.84H56V11.43h1.71l2,3.4.69,1.44h0V11.43h1.48v7.19H60.12Z"/><path class="cls-2" d="M69.7,17.48h0a1.37,1.37,0,0,1-.56.9,2.06,2.06,0,0,1-1.29.36,3,3,0,0,1-1.15-.23,2.75,2.75,0,0,1-.93-.7,3.31,3.31,0,0,1-.63-1.16,5.12,5.12,0,0,1-.23-1.59,5,5,0,0,1,.24-1.61,3.4,3.4,0,0,1,.66-1.17,2.75,2.75,0,0,1,1-.72,3.3,3.3,0,0,1,1.32-.25,3.19,3.19,0,0,1,1.67.42A2.82,2.82,0,0,1,70.88,13l-1.27.73a1.85,1.85,0,0,0-.52-.72,1.51,1.51,0,0,0-1-.29,1.6,1.6,0,0,0-1.16.42,1.79,1.79,0,0,0-.43,1.33V15.6A1.8,1.8,0,0,0,67,16.93a1.6,1.6,0,0,0,1.16.42,2.38,2.38,0,0,0,.55-.06,1.55,1.55,0,0,0,.45-.21,1.08,1.08,0,0,0,.31-.33,1,1,0,0,0,.1-.47v-.36H68.19v-1.3H71v4H69.7Z"/><path class="cls-2" d="M86.38,14.21h0l-.52,1-1.4,2.54-1.37-2.53-.55-1.14h0v4.79H81V11.74h1.66l1.76,3.36h0l1.74-3.36h1.67v7.18H86.38Z"/><path class="cls-2" d="M95.62,18.92l-.52-1.71H92.7l-.51,1.71H90.6L93,11.74h1.94l2.33,7.18Zm-1.7-5.76h0l-.8,2.72h1.65Z"/><path class="cls-2" d="M102.58,19a3.43,3.43,0,0,1-1.31-.23,2.43,2.43,0,0,1-1-.69A3,3,0,0,1,99.63,17a5.14,5.14,0,0,1-.23-1.6,5.3,5.3,0,0,1,.23-1.61,3.31,3.31,0,0,1,.64-1.19,2.6,2.6,0,0,1,1-.72,3.26,3.26,0,0,1,1.31-.25,3.06,3.06,0,0,1,1.65.41,2.82,2.82,0,0,1,1,1.28l-1.35.7a1.56,1.56,0,0,0-.45-.73,1.3,1.3,0,0,0-.89-.27,1.41,1.41,0,0,0-1.1.45,1.83,1.83,0,0,0-.42,1.3V15.9a1.86,1.86,0,0,0,.42,1.31,1.44,1.44,0,0,0,1.1.44,1.3,1.3,0,0,0,.92-.31,1.89,1.89,0,0,0,.51-.76l1.28.74a3.28,3.28,0,0,1-1.05,1.28A3,3,0,0,1,102.58,19Z"/><path class="cls-2" d="M112.43,16h-2.74v2.94h-1.56V11.74h1.56v2.85h2.74V11.74H114v7.18h-1.57Z"/><path class="cls-2" d="M117.05,18.92V17.67H118V13h-.93V11.74h3.42V13h-.93v4.69h.93v1.25Z"/><path class="cls-2" d="M125.72,15.52,125,14.08h0v4.84h-1.47V11.74h1.71l2,3.39.69,1.44h0V11.74h1.47v7.18h-1.71Z"/><path class="cls-2" d="M132.73,18.92V11.74h4.89v1.38h-3.33v1.47h2.85V16h-2.85v1.55h3.33v1.39Z"/><path class="cls-2" d="M143.05,19a3.73,3.73,0,0,1-1.61-.32,3.92,3.92,0,0,1-1.12-.84l1-1a2.34,2.34,0,0,0,1.8.81,1.3,1.3,0,0,0,.86-.23.79.79,0,0,0,.28-.62.76.76,0,0,0-.17-.5,1.08,1.08,0,0,0-.67-.27l-.71-.09a2.78,2.78,0,0,1-1.67-.69,2,2,0,0,1-.53-1.45,2.14,2.14,0,0,1,.18-.89,2,2,0,0,1,.53-.69,2.64,2.64,0,0,1,.85-.45,3.92,3.92,0,0,1,1.14-.16,3.76,3.76,0,0,1,1.43.26,2.93,2.93,0,0,1,1.06.75l-1,1.05a2.19,2.19,0,0,0-.63-.48,1.93,1.93,0,0,0-.92-.19,1.36,1.36,0,0,0-.78.18.62.62,0,0,0-.26.51.64.64,0,0,0,.2.53,1.47,1.47,0,0,0,.66.24l.71.11a3,3,0,0,1,1.64.69,1.89,1.89,0,0,1,.54,1.44,2.27,2.27,0,0,1-.19.95,1.89,1.89,0,0,1-.54.74,2.33,2.33,0,0,1-.88.48A3.64,3.64,0,0,1,143.05,19Z"/><polygon class="cls-2" points="2.18 2.17 2.18 28.15 2.17 28.15 2.17 -0.01 0.01 -0.01 0.01 30.32 2.17 30.32 2.17 30.32 54.1 30.32 54.1 28.16 54.1 28.15 54.1 27.6 2.75 27.6 2.75 2.74 157.48 2.74 157.48 27.6 140.23 27.6 140.23 28.15 140.23 28.16 140.23 30.32 158.04 30.32 158.04 28.16 158.04 28.15 158.04 2.17 2.18 2.17"/><rect class="cls-2" x="2.19" width="69.3" height="2.17"/></svg>