<svg id="Layer_1" data-name="Layer 1" xmlns="http://www.w3.org/2000/svg" viewBox="0 0 334.69 130.63"><path d="M44.14,159.62q-7.38-5.61-7.38-16.27V122q0-8.61-5.19-13.19a22.54,22.54,0,0,0-9-4.44V96q6.63-2.25,9.37-5,4.85-4.71,4.85-14.42V58.31A25.31,25.31,0,0,1,37.92,51a20.89,20.89,0,0,1,7-10.53,24.13,24.13,0,0,1,10.59-4.72,60.08,60.08,0,0,1,10.6-.82V45.8c-3.79.82-6.36,1.91-7.73,3.28q-3.13,3.15-3.14,11V76q0,7.65-2,12.16Q49.68,95.7,39.5,100.42q9.22,3.77,12.4,8.75T55.22,123v17.29q0,7.59,3.69,10.94,2.06,2,7.18,3.49v10.87l-4.86-.14A28.94,28.94,0,0,1,44.14,159.62Z" transform="translate(-22.54 -34.93)"/><path d="M137.45,65.24q8.76,5.61,10.05,19.28H128a11.49,11.49,0,0,0-2.12-6q-3.21-4-10.94-4c-4.23,0-7.25.67-9,2a5.7,5.7,0,0,0-2.7,4.65,5.07,5.07,0,0,0,2.87,4.85q2.86,1.57,20.3,5.4,11.63,2.73,17.43,8.27a18.78,18.78,0,0,1,5.74,14,22.66,22.66,0,0,1-8.23,18.09q-8.25,7-25.47,7-17.56,0-25.94-7.41a24.16,24.16,0,0,1-8.37-18.91h19.75q.61,5.2,2.67,7.39,3.62,3.88,13.4,3.89a20.39,20.39,0,0,0,9.12-1.71,5.46,5.46,0,0,0,3.39-5.12,5.54,5.54,0,0,0-2.74-5q-2.73-1.71-20.3-5.88Q94.19,103,89,98.26t-5.2-13.4q0-10.32,8.1-17.74t22.8-7.42Q128.64,59.7,137.45,65.24Z" transform="translate(-22.54 -34.93)"/><path d="M227.76,114.46q-.76,6.63-6.91,13.46-9.57,10.87-26.79,10.87A37.76,37.76,0,0,1,169,129.63q-10.87-9.15-10.87-29.8,0-19.35,9.81-29.67t25.46-10.32a39,39,0,0,1,16.75,3.49,29.26,29.26,0,0,1,12.3,11,37.58,37.58,0,0,1,5.68,15.38,99.86,99.86,0,0,1,.61,14.77h-51q.41,11.2,7,15.72a16.57,16.57,0,0,0,9.71,2.8,14,14,0,0,0,9.77-3.42,16,16,0,0,0,3.62-5.12ZM208.48,91.63Q208,83.91,203.8,79.9a14.59,14.59,0,0,0-10.43-4q-6.76,0-10.49,4.24T178.2,91.63Z" transform="translate(-22.54 -34.93)"/><path d="M305.62,114.46q-.75,6.63-6.91,13.46-9.57,10.87-26.79,10.87a37.78,37.78,0,0,1-25.09-9.16Q236,120.48,236,99.83q0-19.35,9.81-29.67t25.46-10.32A39,39,0,0,1,288,63.33a29.34,29.34,0,0,1,12.31,11A37.71,37.71,0,0,1,306,89.71a99.59,99.59,0,0,1,.62,14.77h-51q.4,11.2,7,15.72a16.57,16.57,0,0,0,9.71,2.8,13.94,13.94,0,0,0,9.77-3.42,16.16,16.16,0,0,0,3.63-5.12ZM286.34,91.63q-.48-7.72-4.68-11.73a14.57,14.57,0,0,0-10.43-4q-6.76,0-10.49,4.24t-4.68,11.49Z" transform="translate(-22.54 -34.93)"/><path d="M324.49,60.09q0-7.59-2.43-10.33t-8.38-4V34.93a59.61,59.61,0,0,1,10.53.82,24.75,24.75,0,0,1,10.67,4.72,18.44,18.44,0,0,1,6.35,8.75A28.5,28.5,0,0,1,343,58.31V76.63q0,9.78,4.44,14.36,2.74,2.73,9.78,5.05v8.28a23.09,23.09,0,0,0-8.82,4.23Q343,113.2,343,122v21.4q0,10.4-7.18,16.1a28.21,28.21,0,0,1-17.29,6l-4.86.14V154.7c3.42-1,5.82-2.19,7.18-3.56,2.33-2.28,3.53-5.9,3.63-10.87V123q0-9.7,3.76-14.43t12-8.13q-9-4.38-12.34-10T324.49,76Z" transform="translate(-22.54 -34.93)"/></svg>